<svg xmlns="http://www.w3.org/2000/svg" style="display:none">
  <symbol id="icon-sparkles" viewBox="0 0 24 24">
    <path fill="currentColor" d="M12 2l1.8 5.1L19 9l-5.2 1.9L12 16l-1.8-5.1L5 9l5.2-1.9L12 2Zm7 11l.9 2.4L22 16l-2.1.6L19 19l-.9-2.4L16 16l2.1-.6L19 13ZM5 13l1.2 3.2L9 17l-2.8.8L5 21l-1.2-3.2L1 17l2.8-.8L5 13Z"/>
  </symbol>
  <symbol id="icon-calendar-check" viewBox="0 0 24 24">
    <path fill="currentColor" d="M7 2h2v3h6V2h2v3h3a2 2 0 0 1 2 2v15H2V7a2 2 0 0 1 2-2h3V2Zm15 8H2v10h20V10Zm-6.2 3.2 1.4 1.4-5 5-3-3 1.4-1.4 1.6 1.6 3.8-3.8Z"/>
  </symbol>
  <symbol id="icon-comments" viewBox="0 0 24 24">
    <path fill="currentColor" d="M4 4h12a3 3 0 0 1 3 3v6a3 3 0 0 1-3 3H9l-5 4v-4a3 3 0 0 1-3-3V7a3 3 0 0 1 3-3Zm12 13h1a4 4 0 0 0 4-4V8h1a2 2 0 0 1 2 2v5a2 2 0 0 1-2 2v3l-4-3h-2Z"/>
  </symbol>
  <symbol id="icon-clock" viewBox="0 0 24 24">
    <path fill="currentColor" d="M12 2a10 10 0 1 1 0 20 10 10 0 0 1 0-20Zm1 5h-2v6l5 3 1-1.7-4-2.3V7Z"/>
  </symbol>
  <symbol id="icon-star" viewBox="0 0 24 24">
    <path fill="currentColor" d="m12 2 3.1 6.3 6.9 1-5 4.9 1.2 6.8L12 17.8 5.8 21 7 14.2 2 9.3l6.9-1L12 2Z"/>
  </symbol>
  <symbol id="icon-users" viewBox="0 0 24 24">
    <path fill="currentColor" d="M8 12a4 4 0 1 1 0-8 4 4 0 0 1 0 8Zm8-1a3.5 3.5 0 1 1 0-7 3.5 3.5 0 0 1 0 7ZM2 21v-2a6 6 0 0 1 12 0v2H2Zm12.5 0v-2.4a7.4 7.4 0 0 0-1.2-4.1A5.5 5.5 0 0 1 22 19v2h-7.5Z"/>
  </symbol>
  <symbol id="icon-graduation-cap" viewBox="0 0 24 24">
    <path fill="currentColor" d="m12 3 11 5-11 5L1 8l11-5Zm-7 8.2 7 3.2 7-3.2V16c0 2.2-3.1 4-7 4s-7-1.8-7-4v-4.8Zm16-.6 2-.9V17h-2v-6.4Z"/>
  </symbol>
  <symbol id="icon-microphone" viewBox="0 0 24 24">
    <path fill="currentColor" d="M12 2a4 4 0 0 1 4 4v6a4 4 0 0 1-8 0V6a4 4 0 0 1 4-4Zm7 10a7 7 0 0 1-6 6.9V22h-2v-3.1A7 7 0 0 1 5 12h2a5 5 0 0 0 10 0h2Z"/>
  </symbol>
  <symbol id="icon-book-open" viewBox="0 0 24 24">
    <path fill="currentColor" d="M3 4.5A8 8 0 0 1 11 6v16a8 8 0 0 0-8-1.5v-16Zm11 1.5a8 8 0 0 1 8-1.5v16A8 8 0 0 0 14 22V6Z"/>
  </symbol>
  <symbol id="icon-handshake" viewBox="0 0 24 24">
    <path fill="currentColor" d="M8.5 5 12 7l2.5-2H20v8l-2 1.2-4.2 4.2a3 3 0 0 1-4.2 0L4 13.8V5h4.5Zm1.3 2H6v5l5 5a1 1 0 0 0 1.4 0l.3-.3-3.4-3.4 1.4-1.4 3.4 3.4.8-.8-3.4-3.4L13 9.7l3.4 3.4.6-.4V7h-2.8L12.4 8.5a2 2 0 0 1-2.2.1L8.5 7Z"/>
  </symbol>
  <symbol id="icon-eye" viewBox="0 0 24 24">
    <path fill="currentColor" d="M12 5c5.5 0 9.5 5.5 10 7-.5 1.5-4.5 7-10 7S2.5 13.5 2 12c.5-1.5 4.5-7 10-7Zm0 11a4 4 0 1 0 0-8 4 4 0 0 0 0 8Zm0-2.2a1.8 1.8 0 1 1 0-3.6 1.8 1.8 0 0 1 0 3.6Z"/>
  </symbol>
  <symbol id="icon-key" viewBox="0 0 24 24">
    <path fill="currentColor" d="M8 14a5 5 0 1 1 4.6-7h10v4h-3v3h-3v3h-4.6A5 5 0 0 1 8 14Zm0-2a2 2 0 1 0 0-4 2 2 0 0 0 0 4Z"/>
  </symbol>
  <symbol id="icon-map-location" viewBox="0 0 24 24">
    <path fill="currentColor" d="m8 18-6 3V6l6-3 8 3 6-3v15l-6 3-8-3Zm8-2.2V8.2l-8-3v7.6l8 3ZM12 7a4 4 0 0 1 4 4c0 3-4 6-4 6s-4-3-4-6a4 4 0 0 1 4-4Zm0 5.2a1.2 1.2 0 1 0 0-2.4 1.2 1.2 0 0 0 0 2.4Z"/>
  </symbol>
  <symbol id="icon-sun" viewBox="0 0 24 24">
    <path fill="currentColor" d="M11 1h2v4h-2V1Zm0 18h2v4h-2v-4ZM1 11h4v2H1v-2Zm18 0h4v2h-4v-2ZM4.2 2.8l2.8 2.8-1.4 1.4-2.8-2.8 1.4-1.4Zm14.2 14.2 2.8 2.8-1.4 1.4-2.8-2.8 1.4-1.4Zm1.4-14.2 1.4 1.4-2.8 2.8-1.4-1.4 2.8-2.8ZM5.6 17l1.4 1.4-2.8 2.8-1.4-1.4L5.6 17ZM12 7a5 5 0 1 1 0 10 5 5 0 0 1 0-10Z"/>
  </symbol>
  <symbol id="icon-hourglass" viewBox="0 0 24 24">
    <path fill="currentColor" d="M5 2h14v5.5L15 12l4 4.5V22H5v-5.5L9 12 5 7.5V2Zm3 2v2.7l4 4.5 4-4.5V4H8Zm4 8.8-4 4.5V20h8v-2.7l-4-4.5Z"/>
  </symbol>
  <symbol id="icon-infinity" viewBox="0 0 24 24">
    <path fill="currentColor" d="M6.5 7C9 7 10.7 9.2 12 10.7 13.3 9.2 15 7 17.5 7a5 5 0 1 1 0 10c-2.5 0-4.2-2.2-5.5-3.7C10.7 14.8 9 17 6.5 17a5 5 0 1 1 0-10Zm0 3a2 2 0 1 0 0 4c1 0 2.2-1.4 3.5-3-1.3-1.6-2.5-3-3.5-3Zm11 0c-1 0-2.2 1.4-3.5 3 1.3 1.6 2.5 3 3.5 3a2 2 0 1 0 0-4Z"/>
  </symbol>
  <symbol id="icon-fingerprint" viewBox="0 0 24 24">
    <path fill="currentColor" d="M12 2a9 9 0 0 1 9 9h-2a7 7 0 0 0-14 0H3a9 9 0 0 1 9-9Zm0 4a5 5 0 0 1 5 5v2c0 2.8-1.1 5.4-3 7.4l-1.4-1.4A8.9 8.9 0 0 0 15 13v-2a3 3 0 0 0-6 0v1H7v-1a5 5 0 0 1 5-5Zm0 4a1 1 0 0 1 1 1v2c0 3.5-1.4 6.7-3.9 9.1L7.7 20.7A9.9 9.9 0 0 0 11 13v-2a1 1 0 0 1 1-1Zm-4 4h2a12 12 0 0 1-2.1 6.8L6.2 19.7A10 10 0 0 0 8 14Zm8 0h2a12 12 0 0 1-1.8 6.3l-1.7-1.1A10 10 0 0 0 16 14Z"/>
  </symbol>
  <symbol id="icon-arrow-up" viewBox="0 0 24 24">
    <path fill="currentColor" d="M11 20V7.8l-5.6 5.6L4 12l8-8 8 8-1.4 1.4L13 7.8V20h-2Z"/>
  </symbol>
  <symbol id="icon-copy" viewBox="0 0 24 24">
    <path fill="currentColor" d="M8 8h12v14H8V8Zm2 2v10h8V10h-8ZM4 2h12v4h-2V4H6v10h2v2H4V2Z"/>
  </symbol>
  <symbol id="icon-check" viewBox="0 0 24 24">
    <path fill="currentColor" d="m9 16.2-4.2-4.2-1.4 1.4L9 19 21 7l-1.4-1.4L9 16.2Z"/>
  </symbol>
  <symbol id="icon-info" viewBox="0 0 24 24">
    <path fill="currentColor" d="M11 10h2v8h-2v-8Zm0-4h2v2h-2V6Zm1-4a10 10 0 1 1 0 20 10 10 0 0 1 0-20Z"/>
  </symbol>
  <symbol id="icon-envelope" viewBox="0 0 24 24">
    <path fill="currentColor" d="M2 5h20v16H2V5Zm2 3.2V19h16V8.2l-8 5.3-8-5.3ZM5 7l7 4.7L19 7H5Z"/>
  </symbol>
  <symbol id="icon-warning" viewBox="0 0 24 24">
    <path fill="currentColor" d="M12 2 23 21H1L12 2Zm-1 7v6h2V9h-2Zm0 8v2h2v-2h-2Z"/>
  </symbol>
  <symbol id="icon-qrcode" viewBox="0 0 24 24">
    <path fill="currentColor" d="M3 3h8v8H3V3Zm2 2v4h4V5H5Zm10-2h6v6h-6V3Zm2 2v2h2V5h-2ZM3 15h6v6H3v-6Zm2 2v2h2v-2H5Zm10-6h2v2h-2v-2Zm4 0h2v4h-4v-2h2v-2Zm-8 4h4v2h-2v4h-2v-6Zm6 2h2v2h2v2h-4v-4Z"/>
  </symbol>
  <symbol id="icon-shield" viewBox="0 0 24 24">
    <path fill="currentColor" d="M12 2 21 5v7c0 5-3.6 9-9 11-5.4-2-9-6-9-11V5l9-3Zm0 2.2L5 6.5V12c0 3.7 2.4 6.8 7 8.8V4.2Z"/>
  </symbol>
  <symbol id="icon-volume-xmark" viewBox="0 0 24 24">
    <path fill="currentColor" d="M3 9h4l5-5v16l-5-5H3V9Zm14.7 3 2.3-2.3 1.4 1.4-2.3 2.3 2.3 2.3-1.4 1.4-2.3-2.3-2.3 2.3-1.4-1.4 2.3-2.3-2.3-2.3 1.4-1.4 2.3 2.3Z"/>
  </symbol>
</svg>
